<!DOCTYPE svg PUBLIC "-//W3C//DTD SVG 1.1//EN" "http://www.w3.org/Graphics/SVG/1.1/DTD/svg11.dtd">
<!-- Uploaded to: SVG Repo, www.svgrepo.com, Transformed by: SVG Repo Mixer Tools -->
<svg fill="#ffffff" height="800px" width="800px" version="1.1" id="Layer_1" xmlns="http://www.w3.org/2000/svg" xmlns:xlink="http://www.w3.org/1999/xlink" viewBox="0 0 512 512" xml:space="preserve" stroke="#ffffff">
<g id="SVGRepo_bgCarrier" stroke-width="0"/>
<g id="SVGRepo_tracerCarrier" stroke-linecap="round" stroke-linejoin="round"/>
<g id="SVGRepo_iconCarrier"> <g> <g> <path d="M0.191,336.38V512h127.621V336.38H0.191z M112.19,496.379H15.813v-31.902h9.869C29.054,473.532,37.786,480,48.002,480 c10.216,0,18.947-6.468,22.32-15.523h41.868V496.379z M39.812,456.19c0-4.516,3.673-8.19,8.189-8.19s8.19,3.674,8.19,8.19 s-3.674,8.189-8.19,8.189S39.812,460.706,39.812,456.19z M112.19,448.855H70.651c-3.1-9.55-12.08-16.476-22.65-16.476 s-19.55,6.927-22.65,16.476h-9.539v-96.854h96.379V448.855z"/> </g> </g> <g> <g> <path d="M172.765,320.379l-16,16.001h-20.764v15.621h27.234l16-16H351.23c-3.5,13.986-16.175,24.379-31.231,24.379h-127.81v23.81 h15.621v-8.189h112.189c26.363,0,47.811-21.448,47.811-47.811v-7.811H172.765z"/> </g> </g> <g> <g> <path d="M367.998,352.379v15.621h127.27c-2.837,11.857-12.003,21.495-24.206,24.659l-175.488,45.496v-14.295h-15.621v16.518 H179.236l-16-15.999h-27.234v15.621h20.764l16,15.999h116.227l185.99-48.219c21.683-5.621,36.826-25.191,36.826-47.591v-7.811 H367.998z"/> </g> </g> <g> <g> <path d="M319.526,88.521V0H208.093v88.521h-87.48v111.433h87.48v88.521h111.433v-88.521h88.521V88.521H319.526z M392.426,184.333 h-88.521v88.521h-80.19v-88.521h-87.48v-80.19h87.48V15.621h80.19v88.521h88.521V184.333z"/> </g> </g> </g>
</svg>